HIERARCHY
ROOT ui
{
	 OFFSET 0 0 0
	 CHANNELS 3 XPosition YPosition Z Position
	 EndSite
	 {
	 OFFSET 0 -1 0
	 }
}
ROOT li
{
	 OFFSET 0 0 0
	 CHANNELS 3 XPosition YPosition Z Position
	 EndSite
	 {
	 OFFSET 0 -1 0
	 }
}
ROOT ul
{
	 OFFSET 0 0 0
	 CHANNELS 3 XPosition YPosition Z Position
	 EndSite
	 {
	 OFFSET 0 -1 0
	 }
}
ROOT ll
{
	 OFFSET 0 0 0
	 CHANNELS 3 XPosition YPosition Z Position
	 EndSite
	 {
	 OFFSET 0 -1 0
	 }
}
ROOT tt
{
	 OFFSET 0 0 0
	 CHANNELS 3 XPosition YPosition Z Position
	 EndSite
	 {
	 OFFSET 0 -1 0
	 }
}
ROOT tb
{
	 OFFSET 0 0 0
	 CHANNELS 3 XPosition YPosition Z Position
	 EndSite
	 {
	 OFFSET 0 -1 0
	 }
}
ROOT td
{
	 OFFSET 0 0 0
	 CHANNELS 3 XPosition YPosition Z Position
	 EndSite
	 {
	 OFFSET 0 -1 0
	 }
}
ROOT v
{
	 OFFSET 0 0 0
	 CHANNELS 3 XPosition YPosition Z Position
	 EndSite
	 {
	 OFFSET 0 -1 0
	 }
}
ROOT bn
{
	 OFFSET 0 0 0
	 CHANNELS 3 XPosition YPosition Z Position
	 EndSite
	 {
	 OFFSET 0 -1 0
	 }
}
MOTION
Frames: 24
Frame Time: 0.002
-0.018393482208251953	-0.005192432880401611	0		0.49889501953125	-2.436442626953125	0		-0.92230615234375	0.24038014221191406	0		-0.5825670166015625	-2.3958486328125	0		1.858745849609375	-0.7695692749023437	0		3.28587890625	-0.7740993041992188	0		4.4150693359375	-0.3654472351074219	0		5.96738330078125	0.453992919921875	0		-0.05116049575805664	6.0012578125	0		
0.008125635147094726	-0.005919363975524903	0		0.516606201171875	-2.430997314453125	0		-0.8197213134765625	0.24331629943847657	0		-0.5928189086914063	-2.387962646484375	0		1.8534173583984375	-0.7626806030273438	0		3.2636044921875	-0.763867919921875	0		4.41560546875	-0.365568115234375	0		5.9678896484375	0.4539281005859375	0		-0.08395252227783204	5.99554296875	0		
-0.027188066482543946	0.0033853271007537843	0		0.492309326171875	-2.425862060546875	0		-0.92127392578125	0.23972300720214842	0		-0.5891727294921875	-2.386345947265625	0		1.8629188232421876	-0.7660782470703125	0		3.280745361328125	-0.7883488159179688	0		4.41000927734375	-0.3736164245605469	0		5.9693828125	0.4528145751953125	0		-0.05130303573608398	6.0146787109375	0		
0.013224783897399903	-0.0036353979110717773	0		0.5068456115722656	-2.4304208984375	0		-0.8806985473632812	0.24266935729980468	0		-0.570570068359375	-2.387011474609375	0		1.852673583984375	-0.7541639404296875	0		3.291737060546875	-0.7627454223632812	0		4.4225419921875	-0.3740036315917969	0		5.97304150390625	0.4616346740722656	0		-0.08509093475341797	6.0089208984375	0		
-0.009195598602294922	3.956890106201172E-4	0		0.5036930541992187	-2.4156982421875	0		-0.8710638427734375	0.250123779296875	0		-0.5387803955078125	-2.375922119140625	0		1.8731873779296875	-0.7558021850585938	0		3.2658486328125	-0.7875467529296875	0		4.40999658203125	-0.37799090576171873	0		5.96426220703125	0.445634033203125	0		-0.04993011856079101	5.9999619140625	0		
3.2481199502944945E-4	0.0018613760471343993	0		0.517292724609375	-2.41428369140625	0		-0.8897007446289062	0.24303866577148436	0		-0.5751917724609374	-2.374691162109375	0		1.853719970703125	-0.75478076171875	0		3.2663623046875	-0.7878193969726562	0		4.40815673828125	-0.3981888732910156	0		5.956736328125	0.44558660888671875	0		-0.0837208023071289	5.99515869140625	0		
-0.011297314643859864	-0.003330693960189819	0		0.48983432006835936	-2.4141884765625	0		-0.889247314453125	0.24261390686035156	0		-0.5397114868164062	-2.37869970703125	0		1.8542049560546876	-0.75511865234375	0		3.282642333984375	-0.800382568359375	0		4.40863037109375	-0.39844586181640623	0		5.96518212890625	0.4452427978515625	0		-0.04935256195068359	6.00018115234375	0		
0.0012150460481643677	0.0010560749769210815	0		0.4923699340820312	-2.41261669921875	0		-0.888825439453125	0.24217835998535156	0		-0.6050315551757812	-2.368007568359375	0		1.860791748046875	-0.7475743408203125	0		3.2832822265625	-0.7896939086914062	0		4.4131728515625	-0.3927903747558594	0		5.966869140625	0.46099462890625	0		-0.06801673889160156	6.00509228515625	0		
-0.020320669174194336	0.0050107817649841305	0		0.46995388793945314	-2.40563134765625	0		-0.9112324829101562	0.2541234893798828	0		-0.5635087890625	-2.36513623046875	0		1.8673240966796876	-0.7410409545898438	0		3.277462158203125	-0.8039139404296874	0		4.44240380859375	-0.40357107543945314	0		5.975248046875	0.46061212158203124	0		-0.06779428863525391	6.00467333984375	0		
0.015860554695129394	-0.006018263816833496	0		0.499369384765625	-2.406530517578125	0		-0.9158154907226562	0.25776144409179685	0		-0.5960179443359375	-2.361015869140625	0		1.8738336181640625	-0.7335153198242188	0		3.28797265625	-0.7964182739257812	0		4.4085048828125	-0.4192974853515625	0		5.96759228515625	0.46048501586914065	0		-0.0675989990234375	6.00425	0		
-0.019648933410644533	0.004165380001068115	0		0.48988186645507814	-2.398773193359375	0		-0.8745955810546875	0.2516250305175781	0		-0.5705452880859375	-2.3558759765625	0		1.8741683349609375	-0.7338916625976563	0		3.297240234375	-0.8009108276367187	0		4.4328115234375	-0.42101580810546874	0		5.9627802734375	0.45329541015625	0		-0.04950117874145508	5.9995224609375	0		
0.0025580570697784424	-6.254019737243653E-4	0		0.4813669128417969	-2.390031982421875	0		-0.8783736572265625	0.24825274658203125	0		-0.5702141723632812	-2.35630908203125	0		1.874462646484375	-0.734269287109375	0		3.262490478515625	-0.803666015625	0		4.40911865234375	-0.41993109130859374	0		5.9591826171875	0.4610769348144531	0		-0.06825609588623047	6.00542041015625	0		
-0.023198162078857422	-6.020680069923401E-4	0		0.4983338623046875	-2.4097197265625	0		-0.8740887451171875	0.25075273132324216	0		-0.560061767578125	-2.36490234375	0		1.8747177734375	-0.7346450805664062	0		3.28847412109375	-0.8204486083984375	0		4.42721337890625	-0.4295565185546875	0		5.9683955078125	0.45963360595703123	0		-0.05197319412231445	6.01473388671875	0		
0.007054090976715088	0.001487874984741211	0		0.47570440673828124	-2.40272998046875	0		-0.9368782958984375	0.2513910827636719	0		-0.6236022338867188	-2.3522431640625	0		1.853872802734375	-0.7386624755859375	0		3.299130615234375	-0.7949658203125	0		4.434611328125	-0.4190006103515625	0		5.97787744140625	0.4761829528808594	0		-0.05187590789794922	6.014328125	0		
-0.015697876930236818	0.005481407165527343	0		0.49708401489257814	-2.39346923828125	0		-0.86371484375	0.24975833129882813	0		-0.5514489135742188	-2.356853759765625	0		1.8542969970703125	-0.7250282592773437	0		3.283020263671875	-0.8130361328125	0		4.4474912109375	-0.4375404663085937	0		5.968763671875	0.45903616333007813	0		-0.11821817016601563	5.98904736328125	0		
0.010454790115356445	0.004667904853820801	0		0.4843392639160156	-2.389622314453125	0		-0.8735601806640625	0.2495384063720703	0		-0.5533131713867188	-2.36020361328125	0		1.881408203125	-0.728834716796875	0		3.27942236328125	-0.799306884765625	0		4.43565478515625	-0.43766046142578124	0		5.96378076171875	0.45081884765625	0		-0.08404072570800782	5.99409716796875	0		
0.007531047821044922	3.591040074825287E-4	0		0.50941796875	-2.39539599609375	0		-0.8734196166992187	0.24917018127441407	0		-0.5630117797851563	-2.35240234375	0		1.860494140625	-0.7328235473632813	0		3.286421142578125	-0.8087510986328125	0		4.4437001953125	-0.4441107177734375	0		5.96007080078125	0.45958251953125	0		-0.08395565795898438	5.99373681640625	0		
0.007667703151702881	1.7562000080943108E-5	0		0.4577131042480469	-2.38686328125	0		-0.905213134765625	0.2533583068847656	0		-0.552993896484375	-2.360914306640625	0		1.866517822265625	-0.7402515258789063	0		3.26700244140625	-0.7827376708984375	0		4.44490673828125	-0.44043798828125	0		5.96918603515625	0.45813262939453125	0		-0.06867938232421875	6.0041416015625	0		
0.007803433895111084	-3.0520498752593993E-4	0		0.49570465087890625	-2.3968193359375	0		-0.8991466064453125	0.24893093872070313	0		-0.610838134765625	-2.360267822265625	0		1.83282958984375	-0.7299964599609375	0		3.296836181640625	-0.8015443115234375	0		4.4690244140625	-0.44214056396484375	0		5.977603515625	0.474703369140625	0		-0.034478057861328126	6.00924755859375	0		
0.011008218765258789	0.0033404440879821777	0		0.462073486328125	-2.383553466796875	0		-0.8949427490234375	0.25255679321289065	0		-0.5486170043945312	-2.356613037109375	0		1.85295068359375	-0.73162890625	0		3.303328125	-0.7809403076171875	0		4.457166015625	-0.4422280578613281	0		5.964892578125	0.48363641357421877	0		-0.03436000061035156	6.00894384765625	0		
0.008083453178405762	-8.926900029182434E-4	0		0.4850993347167969	-2.391220947265625	0		-0.8988678588867187	0.2483386993408203	0		-0.5854654541015625	-2.356278076171875	0		1.833113525390625	-0.7305744018554687	0		3.3161845703125	-0.7984334716796875	0		4.467955078125	-0.4636849365234375	0		5.959900390625	0.47544863891601563	0		-0.06930841827392578	6.0042470703125	0		
-0.017751283645629883	2.7843698859214783E-4	0		0.485245361328125	-2.391485107421875	0		-0.9046552734375	0.25217385864257813	0		-0.5544411010742187	-2.364061279296875	0		1.8532391357421876	-0.7321727905273437	0		3.283552490234375	-0.7851451416015625	0		4.46535205078125	-0.44889895629882814	0		5.9648935546875	0.46610470581054686	0		-0.08434871673583984	5.9932353515625	0		
0.008374945640563965	-0.0014018709659576415	0		0.48538986206054685	-2.391730224609375	0		-0.9355711059570313	0.24844985961914062	0		-0.627236083984375	-2.360082763671875	0		1.8392864990234374	-0.738183837890625	0		3.306544189453125	-0.7947769775390625	0		4.47719482421875	-0.4673463134765625	0		5.9740224609375	0.4647038879394531	0		-0.06803140258789063	6.00272119140625	0		
-0.017456741333007814	-1.9156800210475922E-4	0		0.46948446655273435	-2.39468798828125	0		-0.9203744506835938	0.25097486877441405	0		-0.5792341918945313	-2.36910986328125	0		1.8455660400390625	-0.7305148315429687	0		3.307193115234375	-0.7650137329101563	0		4.48044189453125	-0.46163253784179686	0		5.9744560546875	0.48146307373046876	0		-0.05268803405761719	6.0132431640625	0		
